<svg width="80" height="80" viewBox="0 0 80 80" fill="none" xmlns="http://www.w3.org/2000/svg">
  <circle cx="40" cy="40" r="40" fill="#14B8A6"/>
  <!-- Face -->
  <circle cx="40" cy="35" r="20" fill="#FEF3C7"/>
  <!-- Hair -->
  <path d="M25 25 Q40 15 55 25 Q55 30 50 32 Q40 28 30 32 Q25 30 25 25" fill="#374151"/>
  <!-- Eyes -->
  <circle cx="33" cy="32" r="2" fill="#374151"/>
  <circle cx="47" cy="32" r="2" fill="#374151"/>
  <!-- Smile -->
  <path d="M32 42 Q40 48 48 42" stroke="#374151" stroke-width="2" fill="none" stroke-linecap="round"/>
  <!-- Headset -->
  <rect x="20" y="28" width="4" height="12" rx="2" fill="#374151"/>
  <rect x="56" y="28" width="4" height="12" rx="2" fill="#374151"/>
  <path d="M24 34 Q40 30 56 34" stroke="#374151" stroke-width="3" fill="none"/>
  <!-- Microphone -->
  <rect x="50" y="40" width="2" height="8" rx="1" fill="#374151"/>
  <circle cx="51" cy="44" r="2" fill="#374151"/>
  <!-- Wave hand -->
  <g transform="translate(15, 50)">
    <rect x="0" y="0" width="3" height="8" rx="1.5" fill="#FEF3C7"/>
    <rect x="4" y="-2" width="3" height="8" rx="1.5" fill="#FEF3C7"/>
    <rect x="8" y="0" width="3" height="8" rx="1.5" fill="#FEF3C7"/>
    <rect x="12" y="2" width="3" height="8" rx="1.5" fill="#FEF3C7"/>
  </g>
  <!-- Badge -->
  <rect x="58" y="58" width="20" height="12" rx="6" fill="white"/>
  <circle cx="62" cy="64" r="2" fill="#10B981"/>
  <text x="66" y="66" font-family="Arial" font-size="6" fill="#374151">VA</text>
</svg>